<svg xmlns="http://www.w3.org/2000/svg" xmlns:xlink="http://www.w3.org/1999/xlink" id="Capa_1" x="0px" y="0px" viewBox="0 0 317.5 317.5" style="enable-background:new 0 0 317.5 317.5;" xml:space="preserve">
<g>
	<path d="M313.75,235.878c1.37-4.322,1.492-8.95,0.291-13.436l-11.483-42.91c-0.94-3.51-2.643-6.677-4.933-9.362   c-0.199-3.564-1.19-7.043-2.939-10.222l-21.413-38.919c-3.209-5.832-8.5-9.806-14.444-11.509c-0.056-6.289-2.577-12.432-7.269-17   l-31.828-30.986c-4.055-3.948-9.237-6.291-14.817-6.735c-2.096-5.105-5.903-9.401-10.897-12.071l-39.176-20.939   c-5.663-3.027-12.165-3.668-18.311-1.804c-6.145,1.864-11.196,6.009-14.223,11.672L18.811,225.287   c-1.103,0.246-2.178,0.565-3.218,0.957L15.518,24.349c-0.001-4.985,4.053-9.041,9.038-9.042l44.42-0.014c0.001,0,0.001,0,0.002,0   c4.983,0,9.039,4.054,9.04,9.041l0.027,37.891c0.003,4.141,3.36,7.495,7.5,7.495c0.001,0,0.003,0,0.005,0   c4.142-0.003,7.498-3.363,7.495-7.505l-0.027-37.887c-0.001-6.421-2.504-12.458-7.046-16.997   c-4.54-4.538-10.575-7.036-16.994-7.036c-0.002,0-0.005,0-0.007,0l-44.42,0.014C18.13,0.308,12.094,2.81,7.554,7.352   c-4.539,4.542-7.038,10.579-7.036,17.001l0.081,219.082C0.211,245.146,0,246.922,0,248.747v44.42   c0,13.256,10.784,24.04,24.04,24.04H293.46c13.255,0,24.04-10.784,24.04-24.04v-44.42C317.5,244.015,316.12,239.602,313.75,235.878   z M278.538,161.718c-1.81,0.064-3.625,0.327-5.418,0.806L109.432,206.33c-4.001,1.071-6.377,5.183-5.306,9.184   c1.07,4.002,5.183,6.375,9.184,5.306l163.688-43.805c2.333-0.625,4.769-0.303,6.859,0.905c0.505,0.292,0.973,0.628,1.404,1.001   c0.02,0.016,0.039,0.032,0.059,0.049c1.326,1.166,2.28,2.696,2.747,4.44l11.245,42.021c-1.874-0.471-3.834-0.724-5.852-0.724   H66.076l181.776-100.01c4.369-2.402,9.876-0.804,12.278,3.563L278.538,161.718z M241.095,103.268   c1.873,1.823,2.811,4.313,2.714,6.827c-1.081,0.404-2.147,0.887-3.187,1.46L63.594,208.953l132.891-136.5   c1.684-1.73,3.941-2.701,6.355-2.733c2.435-0.043,4.697,0.877,6.427,2.562L241.095,103.268z M135.537,38.729   c1.138-2.13,3.038-3.688,5.349-4.39c2.311-0.7,4.756-0.46,6.885,0.678l39.175,20.939c1.198,0.64,2.203,1.538,2.987,2.597   c-1.505,0.975-2.914,2.119-4.196,3.436L46.853,204.645L135.537,38.729z M302.5,293.167c0,4.985-4.055,9.04-9.04,9.04H24.04   c-4.984,0-9.04-4.055-9.04-9.04v-44.42c0-4.835,3.819-8.784,8.597-9.017c0,0,0.001,0,0.001,0c0.002,0,0.004,0,0.006,0   c0.145-0.007,0.288-0.022,0.435-0.022H293.46c4.984,0,9.04,4.055,9.04,9.04V293.167z"></path>
	<path d="M280,242.624h-29.167c-4.142,0-7.5,3.358-7.5,7.5v41.667c0,4.142,3.358,7.5,7.5,7.5H280c4.142,0,7.5-3.358,7.5-7.5   s-3.358-7.5-7.5-7.5h-21.667v-26.667H272.5v7.626c0,4.142,3.358,7.5,7.5,7.5s7.5-3.358,7.5-7.5v-15.126   C287.5,245.982,284.142,242.624,280,242.624z"></path>
	<path d="M228.333,242.624h-29.167c-4.142,0-7.5,3.358-7.5,7.5v41.667c0,4.142,3.358,7.5,7.5,7.5h29.167c4.142,0,7.5-3.358,7.5-7.5   v-41.667C235.833,245.982,232.476,242.624,228.333,242.624z M220.833,284.291h-14.167v-26.667h14.167V284.291z"></path>
	<path d="M176.667,242.624H147.5c-4.142,0-7.5,3.358-7.5,7.5v41.667c0,4.142,3.358,7.5,7.5,7.5h29.167c4.142,0,7.5-3.358,7.5-7.5   v-41.667C184.167,245.982,180.809,242.624,176.667,242.624z M169.167,284.291H155v-26.667h14.167V284.291z"></path>
	<path d="M46.842,249.977c-4.142,0-7.5,3.358-7.5,7.5s3.358,7.5,7.5,7.5c3.297,0,5.98,2.683,5.98,5.98c0,3.297-2.683,5.98-5.98,5.98   s-5.98-2.683-5.98-5.98c0-4.142-3.358-7.5-7.5-7.5s-7.5,3.358-7.5,7.5c0,11.568,9.412,20.98,20.98,20.98s20.98-9.412,20.98-20.98   C67.822,259.389,58.41,249.977,46.842,249.977z"></path>
</g>
<g>
</g>
<g>
</g>
<g>
</g>
<g>
</g>
<g>
</g>
<g>
</g>
<g>
</g>
<g>
</g>
<g>
</g>
<g>
</g>
<g>
</g>
<g>
</g>
<g>
</g>
<g>
</g>
<g>
</g>
</svg>