<svg xmlns="http://www.w3.org/2000/svg" xmlns:xlink="http://www.w3.org/1999/xlink" id="Capa_1" x="0px" y="0px" viewBox="0 0 347.695 347.695" style="enable-background:new 0 0 347.695 347.695;" xml:space="preserve">
<g>
	<path d="M71.62,71.332c0-10.008-8.142-18.149-18.149-18.149c-10.008,0-18.149,8.142-18.149,18.149   c0,10.007,8.142,18.149,18.149,18.149C63.478,89.481,71.62,81.339,71.62,71.332z M50.322,71.332c0-1.737,1.413-3.149,3.149-3.149   c1.736,0,3.149,1.413,3.149,3.149c0,1.736-1.413,3.149-3.149,3.149C51.734,74.481,50.322,73.068,50.322,71.332z"></path>
	<path d="M202.265,71.332c0-10.008-8.142-18.149-18.149-18.149c-10.007,0-18.149,8.142-18.149,18.149   c0,10.007,8.142,18.149,18.149,18.149C194.124,89.481,202.265,81.339,202.265,71.332z M180.967,71.332   c0-1.737,1.413-3.149,3.149-3.149c1.737,0,3.149,1.413,3.149,3.149c0,1.736-1.413,3.149-3.149,3.149   C182.38,74.481,180.967,73.068,180.967,71.332z"></path>
	<path d="M337.761,128.079H320.92v-18.363c0-4.142-3.358-7.5-7.5-7.5h-78.267V66.185c0-1.609-0.518-3.176-1.477-4.469L190.139,3.031   C188.725,1.125,186.49,0,184.116,0s-4.609,1.125-6.023,3.031l-41.288,55.653h-36.022L59.494,3.031C58.08,1.125,55.845,0,53.471,0   s-4.609,1.125-6.023,3.031L3.911,61.716c-0.959,1.292-1.477,2.859-1.477,4.469v200.663c0,4.142,3.358,7.5,7.5,7.5   s7.5-3.358,7.5-7.5V68.663l36.037-48.575l36.037,48.575v56.079v179.891H9.934c-4.142,0-7.5,3.358-7.5,7.5s3.358,7.5,7.5,7.5h87.073   c4.142,0,7.5-3.358,7.5-7.5v-17.124h28.572v17.124c0,4.142,3.358,7.5,7.5,7.5h68.056c4.142,0,7.5-3.358,7.5-7.5s-3.358-7.5-7.5-7.5   h-60.556v-17.124v-58.557v-104.21V68.663l36.037-48.575l36.037,48.575v33.553h-40.038c-4.142,0-7.5,3.358-7.5,7.5v51.725   c0,4.142,3.358,7.5,7.5,7.5h40.038v56.279c0,4.142,3.358,7.5,7.5,7.5s7.5-3.358,7.5-7.5v-56.279h78.267c4.142,0,7.5-3.358,7.5-7.5   v-18.362h9.341v43.32l-80.916,23.365c-3.21,0.927-5.419,3.865-5.419,7.206v26.342h-14.939c-4.142,0-7.5,3.358-7.5,7.5v67.169   c0,16.385,13.33,29.715,29.715,29.715h0.449c16.385,0,29.715-13.33,29.715-29.715v-67.169c0-4.142-3.358-7.5-7.5-7.5h-14.939   v-20.702l80.916-23.365c3.21-0.927,5.419-3.865,5.419-7.206v-56.46C345.261,131.437,341.903,128.079,337.761,128.079z    M133.079,117.242h-28.572V73.685h28.572V117.242z M104.508,280.009V132.242h28.572v89.21h-11.898c-4.142,0-7.5,3.358-7.5,7.5   s3.358,7.5,7.5,7.5h11.898v43.557H104.508z M305.92,153.941H187.615v-36.725H305.92V153.941z M266.365,317.98   c0,8.114-6.601,14.715-14.715,14.715h-0.449c-8.114,0-14.715-6.601-14.715-14.715v-59.669h29.879V317.98z"></path>
</g>
<g>
</g>
<g>
</g>
<g>
</g>
<g>
</g>
<g>
</g>
<g>
</g>
<g>
</g>
<g>
</g>
<g>
</g>
<g>
</g>
<g>
</g>
<g>
</g>
<g>
</g>
<g>
</g>
<g>
</g>
</svg>