<svg xmlns="http://www.w3.org/2000/svg" xmlns:xlink="http://www.w3.org/1999/xlink" id="Capa_1" x="0px" y="0px" viewBox="0 0 305.157 305.157" style="enable-background:new 0 0 305.157 305.157;" xml:space="preserve">
<path d="M302.961,68.721c2.929-2.929,2.929-7.678,0-10.606L247.043,2.197c-2.929-2.929-7.678-2.929-10.606,0l-64.585,64.585  c-2.929,2.929-2.929,7.678,0,10.606c2.929,2.929,7.678,2.929,10.606,0l59.282-59.282l45.311,45.311l-20.959,20.959l-16.505-16.505  c-2.929-2.929-7.678-2.929-10.606,0c-2.929,2.929-2.929,7.678,0,10.606l16.505,16.505l-17.912,17.912L221.068,96.39  c-2.929-2.929-7.678-2.929-10.606,0c-2.929,2.929-2.929,7.678,0,10.606l16.505,16.505l-15.304,15.304l-96.226-96.226L92.248,19.39  C84.291,11.433,73.712,7.051,62.46,7.051c-11.252,0-21.832,4.382-29.788,12.338L19.389,32.672c-16.425,16.425-16.425,43.15,0,59.576  l23.189,23.189c0.003,0.003,0.007,0.006,0.01,0.009l40.299,40.299L2.197,236.437c-2.929,2.929-2.929,7.678,0,10.606l55.917,55.917  c1.464,1.464,3.384,2.197,5.303,2.197s3.839-0.732,5.303-2.197l68.12-68.12c2.929-2.929,2.929-7.678,0-10.606  c-2.928-2.929-7.677-2.929-10.606,0l-2.733,2.733l-16.505-16.505c-2.929-2.929-7.678-2.929-10.606,0  c-2.929,2.929-2.929,7.678,0,10.606l16.505,16.505l-17.912,17.912L78.479,238.98c-2.929-2.929-7.678-2.929-10.606,0  c-2.929,2.929-2.929,7.678,0,10.606l16.505,16.505l-20.959,20.959L18.107,241.74l75.388-75.388l96.226,96.226  c0.044,0.044,0.093,0.082,0.138,0.125c0.115,0.109,0.23,0.216,0.352,0.318c0.078,0.065,0.158,0.127,0.238,0.188  c0.112,0.086,0.224,0.171,0.342,0.251c0.1,0.069,0.202,0.132,0.305,0.195c0.102,0.063,0.203,0.125,0.309,0.182  c0.126,0.069,0.253,0.132,0.382,0.194c0.09,0.043,0.179,0.086,0.271,0.126c0.148,0.064,0.297,0.119,0.448,0.173  c0.058,0.021,0.112,0.047,0.171,0.066l92.868,30.617c0.77,0.254,1.562,0.377,2.347,0.377c1.958,0,3.875-0.768,5.304-2.197  c2.002-2.002,2.707-4.962,1.82-7.651l-30.617-92.869c-0.021-0.063-0.049-0.122-0.071-0.184c-0.052-0.144-0.105-0.287-0.165-0.428  c-0.042-0.098-0.088-0.194-0.134-0.289c-0.059-0.122-0.119-0.244-0.185-0.363c-0.061-0.112-0.127-0.219-0.193-0.327  c-0.06-0.097-0.12-0.193-0.184-0.288c-0.084-0.123-0.173-0.241-0.263-0.358c-0.058-0.075-0.115-0.15-0.176-0.223  c-0.106-0.127-0.218-0.247-0.331-0.366c-0.041-0.042-0.075-0.088-0.117-0.129l-40.309-40.309L302.961,68.721z M208.94,253.965  l45.026-45.026l22.145,67.172L208.94,253.965z M195.024,246.668L53.186,104.831c-0.003-0.003-0.007-0.006-0.01-0.009l-23.18-23.18  c-10.576-10.577-10.576-27.786,0-38.363l13.283-13.283c5.124-5.124,11.935-7.945,19.181-7.945c7.246,0,14.058,2.821,19.181,7.945  l17.886,17.886l-25.271,25.27c-2.929,2.929-2.929,7.678,0,10.606c2.928,2.93,7.677,2.929,10.606,0l25.271-25.27l136.535,136.535  L195.024,246.668z"></path>
<g>
</g>
<g>
</g>
<g>
</g>
<g>
</g>
<g>
</g>
<g>
</g>
<g>
</g>
<g>
</g>
<g>
</g>
<g>
</g>
<g>
</g>
<g>
</g>
<g>
</g>
<g>
</g>
<g>
</g>
</svg>