<svg xmlns="http://www.w3.org/2000/svg" xmlns:xlink="http://www.w3.org/1999/xlink" id="Capa_1" x="0px" y="0px" viewBox="0 0 330.003 330.003" style="enable-background:new 0 0 330.003 330.003;" xml:space="preserve">
<g>
	<path d="M322.503,271.563c4.142,0,7.5-3.357,7.5-7.5V8.012c0-3.159-1.98-5.98-4.952-7.054c-2.973-1.073-6.297-0.17-8.316,2.26   L55.81,317.198c-1.859,2.237-2.257,5.347-1.021,7.979s3.881,4.314,6.79,4.314h260.925c4.142,0,7.5-3.357,7.5-7.5   s-3.358-7.5-7.5-7.5H77.562L315.003,28.771v235.292C315.003,268.206,318.361,271.563,322.503,271.563z"></path>
	<path d="M264.891,144.245l-95.588,115.024c-1.859,2.237-2.257,5.347-1.021,7.979s3.881,4.314,6.79,4.314h95.588   c4.142,0,7.5-3.357,7.5-7.5V149.039c0-3.159-1.98-5.98-4.952-7.054C270.234,140.912,266.909,141.815,264.891,144.245z    M263.159,256.563h-72.104l72.104-86.765V256.563z"></path>
	<path d="M62.793,244.534l17.935-22.53l96.514-121.235c0.01-0.012,0.018-0.026,0.027-0.038c0.046-0.058,0.086-0.121,0.13-0.181   c0.174-0.236,0.332-0.478,0.475-0.727c0.037-0.064,0.075-0.127,0.11-0.192c0.17-0.317,0.315-0.642,0.435-0.974   c0.006-0.017,0.016-0.032,0.022-0.049l28.581-80.476c1.072-3.018,0.109-6.383-2.396-8.378c-2.506-1.994-6.001-2.177-8.702-0.457   L123.905,55.19c-0.038,0.024-0.071,0.052-0.109,0.077c-0.108,0.072-0.213,0.148-0.317,0.226c-0.1,0.074-0.2,0.147-0.295,0.226   c-0.088,0.072-0.172,0.148-0.256,0.224c-0.104,0.093-0.207,0.186-0.305,0.284c-0.068,0.068-0.133,0.141-0.198,0.212   c-0.104,0.113-0.208,0.227-0.304,0.346c-0.017,0.021-0.036,0.039-0.053,0.06l-73.89,92.816c-2.58,3.24-2.044,7.959,1.196,10.539   c3.242,2.578,7.959,2.044,10.539-1.197l69.218-86.948l31.704,25.239l-87.171,109.5l-37.572-29.91   c-3.242-2.579-7.96-2.044-10.539,1.197L7.619,200.61c-5.82,7.311-8.445,16.45-7.391,25.735c1.054,9.284,5.661,17.604,12.971,23.423   l0.435,0.346c6.168,4.911,13.901,7.616,21.772,7.616C46.135,257.73,56.117,252.921,62.793,244.534z M140.829,62.193l10.93-6.965   l7.515,5.983c1.38,1.1,3.029,1.633,4.667,1.633c2.206,0,4.392-0.969,5.873-2.828c2.58-3.241,2.044-7.959-1.196-10.539l-3.482-2.772   l20.451-13.032l-17.762,50.013L140.829,62.193z M35.406,242.73c-4.556,0-8.854-1.505-12.428-4.351l-0.436-0.347   c-4.176-3.324-6.808-8.076-7.41-13.38c-0.602-5.304,0.897-10.524,4.222-14.701l13.264-16.661l31.704,25.238l-13.264,16.663   C47.244,239.982,41.539,242.73,35.406,242.73z"></path>
	<path d="M77.972,176.345c2.206,0,4.392-0.969,5.873-2.829l49.043-61.604c2.58-3.24,2.044-7.959-1.196-10.539   c-3.242-2.578-7.959-2.044-10.539,1.197l-49.043,61.604c-2.58,3.24-2.044,7.959,1.196,10.539   C74.687,175.811,76.335,176.345,77.972,176.345z"></path>
</g>
<g>
</g>
<g>
</g>
<g>
</g>
<g>
</g>
<g>
</g>
<g>
</g>
<g>
</g>
<g>
</g>
<g>
</g>
<g>
</g>
<g>
</g>
<g>
</g>
<g>
</g>
<g>
</g>
<g>
</g>
</svg>